<svg width="50" height="50" xmlns="http://www.w3.org/2000/svg">

 <g>
  <title>background</title>
  <rect fill="none" id="canvas_background" height="52" width="52" y="-1" x="-1"/>
 </g>
 <g>
  <title>Layer 1</title>
  <path stroke="null" id="svg_1" d="m24.499996,0c-13.530027,0 -24.499996,10.969969 -24.499996,24.499996c0,10.826414 7.019249,20.007932 16.755509,23.24686c1.224713,0.224328 1.671838,-0.532349 1.671838,-1.178345c0,-0.583215 -0.022442,-2.515173 -0.034405,-4.560827c-6.812865,1.480384 -8.25291,-2.889038 -8.25291,-2.889038c-1.115515,-2.829223 -2.720074,-3.582885 -2.720074,-3.582885c-2.226581,-1.519287 0.168916,-1.48938 0.168916,-1.48938c2.459857,0.170447 3.754912,2.52417 3.754912,2.52417c2.186242,3.744384 5.736205,2.661743 7.129882,2.033691c0.222701,-1.579101 0.856734,-2.661743 1.555176,-3.27185c-5.438616,-0.619056 -11.159844,-2.721557 -11.159844,-12.109458c0,-2.67672 0.955548,-4.8599 2.519672,-6.575091c-0.249737,-0.62207 -1.093121,-3.114849 0.242225,-6.486853c0,0 2.05465,-0.657959 6.738073,2.512207c1.952918,-0.545795 4.047954,-0.81496 6.130981,-0.823956c2.081543,0.008996 4.178015,0.281128 6.133995,0.826923c4.674523,-3.173132 6.73214,-2.512207 6.73214,-2.512207c1.339844,3.375018 0.49646,5.864782 0.245239,6.483886c1.570105,1.715191 2.518188,3.898418 2.518188,6.575091c0,9.411827 -5.730224,11.484373 -11.188268,12.091514c0.882287,0.759643 1.662842,2.249023 1.662842,4.533935c0,3.274865 -0.032922,5.915649 -0.032922,6.723144c0,0.651977 0.445594,1.414588 1.686767,1.17533c9.728843,-3.24491 16.742063,-12.426427 16.742063,-23.24686c0,-13.530027 -10.969969,-24.499996 -24.499996,-24.499996z"/>
 </g>
</svg>
