<svg width="68" height="50" xmlns="http://www.w3.org/2000/svg">
 <metadata>Svg Vector Icons : http://www.onlinewebfonts.com/icon</metadata>

 <g>
  <title>background</title>
  <rect fill="transparent" id="canvas_background" height="50" width="70" y="-1" x="-1"/>
 </g>
 <g>
  <title>Layer 1</title>
  <g stroke="null" id="svg_1">
   <path stroke="null" id="svg_2" d="m41.085713,30.801428c-3.498571,2.802653 -5.681224,4.194489 -7.85755,4.194489c-2.087755,0 -4.200816,-1.303265 -7.465305,-3.84653l-19.428774,17.100611l54.718158,0l-19.7451,-17.61306c-0.075918,0.050612 -0.158163,0.120204 -0.221429,0.16449z"/>
   <path stroke="null" id="svg_3" d="m18.038164,25.170816c-4.61204,-3.55551 -9.932652,-7.667754 -15.038162,-11.710407l0,32.23367c0,0.101224 0.050612,0.189796 0.056939,0.284694l19.586937,-17.239794c-1.417143,-1.107143 -2.941836,-2.277551 -4.605714,-3.568163z"/>
   <path stroke="null" id="svg_4" d="m64.848159,46.44061c0.075918,-0.234082 0.151837,-0.480816 0.151837,-0.746531l0,-33.600201c-6.130408,4.770204 -15.006529,11.678774 -20.611835,16.101019l20.459998,18.245713z"/>
   <path stroke="null" id="svg_5" d="m61.12816,1.750002l-54.249995,0c-1.417143,0 -3.878163,2.46102 -3.878163,3.878163l0,3.049387c5.712857,4.548775 11.919183,9.337958 17.176529,13.393264c2.897551,2.239592 5.497755,4.251428 7.54755,5.85204c5.529387,4.333673 5.529387,4.333673 11.172652,-0.177143c5.10551,-4.074285 18.840406,-14.759795 26.103263,-20.409386l0,-1.701837c0,-1.423469 -2.46102,-3.884489 -3.871836,-3.884489z"/>
  </g>
 </g>
</svg>
